<svg xmlns="http://www.w3.org/2000/svg" viewBox="0 0 201.44 40.42"><defs><style>.cls-1{fill:#ffd400;}.cls-2{fill:#5d2788;}.cls-3{fill:#ab272d;}.cls-4{fill:#f2f2f2;}.cls-5{fill:#fff;}</style></defs><g id="레이어_2" data-name="레이어 2"><g id="레이어_2-2" data-name="레이어 2"><polygon class="cls-1" points="20.02 9.12 16.56 35.98 3.45 35.98 3.25 34.53 0 11.04 1.41 10.9 4.41 34.53 4.41 34.57 15.54 34.57 18.16 9.3 20.02 9.12"/><path class="cls-1" d="M6.36,14.05l-3.58-.37L5.34,33.5h1l8.38,0,1.79-18.35Zm-.42,4.52a1.1,1.1,0,0,1,0-2.2,1.16,1.16,0,0,1,.42.08,1.1,1.1,0,0,1,0,2A1.16,1.16,0,0,1,5.94,18.57Zm1,1.92a.51.51,0,1,1,.51-.5A.51.51,0,0,1,6.9,20.49ZM11.2,31a.51.51,0,1,1,.51-.51A.51.51,0,0,1,11.2,31Zm1.05-2a.82.82,0,1,1,0-1.64.82.82,0,1,1,0,1.64Z"/><path class="cls-2" d="M29.32,16.46H21.46L18.29,37.73l6.22,1V33A6.78,6.78,0,0,1,20,30l1.78-1.76a4.94,4.94,0,0,0,4,2.36c2.51,0,3.67-1.22,3.67-4.16V17Zm-.88,11a2.21,2.21,0,0,1-2.22,2.22,3,3,0,0,1-3-3V19.48h5.21Zm-.3-15.83H22.19L21.82,14h6.92Z"/><path class="cls-2" d="M35.17,40.42l-8-1.27v-6.1a5.37,5.37,0,0,0,5.09-4.6Z"/><path class="cls-3" d="M64.39,14.63l-7,22.23L49.3,39.51l-4.1-27.9C47.38,9.32,49.1,8.89,50.3,9c2.67.16,3.67,2.79,7.14,4.49A13.32,13.32,0,0,0,64.39,14.63Z"/><polygon class="cls-4" points="46.55 33.48 36.32 35.94 29.98 10.63 27.14 0 32.28 0.55 35.3 9.15 43.1 9.15 44.08 16.08 32.28 15.73 36.22 31.56 45.71 27.54 46.55 33.48"/><path class="cls-5" d="M102.85,23.45v4.33H90.37v9.15H85.52V27.78H73.05V23.45ZM88.68,9H74.33V4.35h27.24v4l-9.19,4.33,8.94,3.5v5L87,15.23l-12.65,6V16.07Z"/><path class="cls-5" d="M123.09,4.32v4.4L118.58,12l4.51,3.05V20.4L115,14.68l-7.69,5.65V15l8.38-6.27h-8.38V4.32Zm7.07,17.29V14.16h-6.27V9.9h6.27V4.15h4.75V31H113.52v1.83h21.39v4.06H108.64V27.36H130V25.6H108.64v-4Z"/><path class="cls-5" d="M169.39,23.45v4.33H156.91v9.15h-4.85V27.78H139.59V23.45ZM155.21,9H140.87V4.35H168.1v4l-9.18,4.33,8.94,3.5v5l-14.34-6-12.65,6V16.07Z"/><path class="cls-5" d="M189.63,4.32v4.4L185.12,12l4.51,3.05V20.4l-8.11-5.72-7.7,5.65V15l8.39-6.27h-8.39V4.32Zm7.06,17.29V14.16h-6.27V9.9h6.27V4.15h4.75V31H180.06v1.83h21.38v4.06H175.18V27.36h21.38V25.6H175.18v-4Z"/></g></g></svg>